<?xml version="1.0" encoding="UTF-8"?>
<svg version="1.1" viewBox="0 0 432 144" xmlns="http://www.w3.org/2000/svg" xmlns:xlink="http://www.w3.org/1999/xlink">
<metadata>
<rdf:RDF xmlns:rdf="http://www.w3.org/1999/02/22-rdf-syntax-ns#" xmlns:cc="http://creativecommons.org/ns#" xmlns:dc="http://purl.org/dc/elements/1.1/" xmlns:xmpRights="http://ns.adobe.com/xap/1.0/rights/">
<rdf:Description>
<cc:attributionName>John Neffenger</cc:attributionName>
<cc:license rdf:resource="https://creativecommons.org/licenses/by-sa/4.0/"/>
<dc:title>OpenJFX Featured Banner</dc:title>
<xmpRights:Marked>True</xmpRights:Marked>
<xmpRights:UsageTerms>This work is licensed under the Creative Commons Attribution-ShareAlike 4.0 International License.</xmpRights:UsageTerms>
<xmpRights:WebStatement rdf:resource="https://github.com/jgneff/openjfx"/>
</rdf:Description>
</rdf:RDF>
</metadata>
<style>
path, text {fill: #007396;}
@media (prefers-color-scheme: dark) {
  path, text {fill: #ed8b00;}
}
</style>
<defs>
<symbol id="ar" overflow="visible">
<path d="m10.094-16.594c0 1.625 0.19531 3.0938 0.59375 4.4062 0.39453 1.3047 0.96875 2.4297 1.7188 3.375 0.75 0.9375 1.6641 1.6641 2.75 2.1719 1.082 0.5 2.3281 0.75 3.7344 0.75 1.375 0 2.6094-0.25 3.7031-0.75 1.1016-0.50781 2.0312-1.2344 2.7812-2.1719 0.75-0.94531 1.3203-2.0703 1.7188-3.375 0.39453-1.3125 0.59375-2.7812 0.59375-4.4062s-0.19922-3.0977-0.59375-4.4219c-0.39844-1.3203-0.96875-2.4531-1.7188-3.3906-0.75-0.94531-1.6797-1.6758-2.7812-2.1875-1.0938-0.50781-2.3281-0.76562-3.7031-0.76562-1.4062 0-2.6523 0.26562-3.7344 0.79688-1.0859 0.52344-2 1.2578-2.75 2.2031-0.75 0.9375-1.3242 2.0703-1.7188 3.3906-0.39844 1.3242-0.59375 2.7812-0.59375 4.375zm25.297 0c0 2.8359-0.42188 5.3281-1.2656 7.4844-0.84375 2.1484-2 3.9492-3.4688 5.4062-1.4688 1.4492-3.2148 2.543-5.2344 3.2812-2.0234 0.72656-4.1992 1.0938-6.5312 1.0938-2.2617 0-4.3984-0.36719-6.4062-1.0938-2.0117-0.73828-3.7656-1.832-5.2656-3.2812-1.5-1.457-2.6836-3.2578-3.5469-5.4062-0.85547-2.1562-1.2812-4.6484-1.2812-7.4844 0-2.8438 0.44141-5.3359 1.3281-7.4844 0.89453-2.1562 2.0977-3.9609 3.6094-5.4219 1.5195-1.4688 3.2734-2.5664 5.2656-3.2969 2-0.73828 4.0977-1.1094 6.2969-1.1094 2.2578 0 4.3945 0.37109 6.4062 1.1094 2.0078 0.73047 3.7656 1.8281 5.2656 3.2969 1.5 1.4609 2.6758 3.2656 3.5312 5.4219 0.86328 2.1484 1.2969 4.6406 1.2969 7.4844z"/>
</symbol>
<symbol id="aq" overflow="visible">
<path d="m19.469-12.391c0-2.1953-0.49609-3.957-1.4844-5.2812-0.99219-1.3203-2.4609-1.9844-4.4062-1.9844-0.63672 0-1.2266 0.027344-1.7656 0.078125-0.54297 0.042969-0.99219 0.09375-1.3438 0.15625v12.875c0.44531 0.28125 1.0312 0.52344 1.75 0.71875 0.71875 0.1875 1.4414 0.28125 2.1719 0.28125 3.3828 0 5.0781-2.2812 5.0781-6.8438zm7.2656-0.1875c0 1.9492-0.24219 3.7188-0.71875 5.3125-0.48047 1.5938-1.1836 2.9648-2.1094 4.1094-0.91797 1.1484-2.0625 2.043-3.4375 2.6875-1.375 0.63281-2.9531 0.95312-4.7344 0.95312-0.99219 0-1.918-0.10156-2.7812-0.29688-0.85547-0.1875-1.6836-0.45703-2.4844-0.8125v9.4688h-7.125v-33.141c0.63281-0.1875 1.3672-0.36719 2.2031-0.54688 0.83203-0.17578 1.7031-0.32812 2.6094-0.45312 0.90625-0.13281 1.8281-0.23828 2.7656-0.3125 0.94531-0.082031 1.8477-0.125 2.7031-0.125 2.0703 0 3.9219 0.3125 5.5469 0.9375 1.6328 0.625 3.0078 1.5078 4.125 2.6406 1.1133 1.125 1.9609 2.5 2.5469 4.125 0.59375 1.625 0.89062 3.4453 0.89062 5.4531z"/>
</symbol>
<symbol id="ap" overflow="visible">
<path d="m2.1562-12.391c0-2.2266 0.33594-4.1758 1.0156-5.8438 0.6875-1.6758 1.5859-3.0703 2.7031-4.1875 1.125-1.125 2.4102-1.9727 3.8594-2.5469 1.4453-0.57031 2.9375-0.85938 4.4688-0.85938 3.5703 0 6.3945 1.0938 8.4688 3.2812 2.0703 2.1797 3.1094 5.3906 3.1094 9.6406 0 0.40625-0.015625 0.85938-0.046875 1.3594-0.03125 0.49219-0.0625 0.92969-0.09375 1.3125h-16.172c0.15625 1.4688 0.83594 2.6367 2.0469 3.5 1.2188 0.85547 2.8477 1.2812 4.8906 1.2812 1.3008 0 2.582-0.11719 3.8438-0.35938 1.2578-0.23828 2.2891-0.53516 3.0938-0.89062l0.95312 5.7969c-0.38672 0.1875-0.89844 0.38281-1.5312 0.57812-0.63672 0.1875-1.3438 0.34766-2.125 0.48438-0.78125 0.14453-1.6211 0.26562-2.5156 0.35938-0.89844 0.10156-1.7891 0.15625-2.6719 0.15625-2.2734 0-4.2461-0.33594-5.9219-1-1.668-0.67578-3.0547-1.5938-4.1562-2.75-1.0938-1.1641-1.9062-2.5469-2.4375-4.1406-0.52344-1.5938-0.78125-3.3164-0.78125-5.1719zm16.734-2.7188c-0.03125-0.60156-0.13672-1.1914-0.3125-1.7656-0.17969-0.58203-0.44922-1.0938-0.8125-1.5312-0.36719-0.44531-0.82812-0.8125-1.3906-1.0938-0.55469-0.28906-1.2461-0.4375-2.0781-0.4375-0.79297 0-1.4766 0.13672-2.0469 0.40625-0.57422 0.27344-1.0547 0.63281-1.4375 1.0781-0.38672 0.4375-0.68359 0.95312-0.89062 1.5469-0.21094 0.59375-0.35938 1.1953-0.45312 1.7969z"/>
</symbol>
<symbol id="ao" overflow="visible">
<path d="m3.3438-24.297c1.2188-0.35156 2.7812-0.67969 4.6875-0.98438 1.9141-0.30078 3.9258-0.45312 6.0312-0.45312 2.1328 0 3.9102 0.28125 5.3281 0.84375 1.4141 0.55469 2.5391 1.3398 3.375 2.3594 0.83203 1.0234 1.4219 2.2344 1.7656 3.6406 0.35156 1.4062 0.53125 2.9688 0.53125 4.6875v14.203h-7.125v-13.344c0-2.2891-0.30469-3.9141-0.90625-4.875-0.60547-0.95703-1.7422-1.4375-3.4062-1.4375-0.51172 0-1.0547 0.027344-1.625 0.078125-0.57422 0.042969-1.0859 0.09375-1.5312 0.15625v19.422h-7.125z"/>
</symbol>
<symbol id="an" overflow="visible">
<path d="m21.953-11.141c0 1.625-0.18359 3.1562-0.54688 4.5938-0.36719 1.4297-1.0078 2.6797-1.9219 3.75-0.90625 1.0625-2.1367 1.9062-3.6875 2.5312-1.543 0.625-3.4922 0.9375-5.8438 0.9375-2.168 0-4.0312-0.26172-5.5938-0.78125-1.5625-0.53125-2.8555-1.1484-3.875-1.8594l2.4844-5.7812c0.92578 0.54297 1.9141 1.0234 2.9688 1.4375 1.0508 0.41797 2.1953 0.625 3.4375 0.625 1.8125 0 3.1133-0.44531 3.9062-1.3438 0.80078-0.89453 1.2031-2.3945 1.2031-4.5v-21.609h7.4688z"/>
</symbol>
<symbol id="am" overflow="visible">
<path d="m3.8281 0v-33.141h22.188v6.2656h-14.734v6.9375h13.109v6.2656h-13.109v13.672z"/>
</symbol>
<symbol id="al" overflow="visible">
<path d="m22.859 0c-0.92969-1.8516-1.9453-3.7266-3.0469-5.625-1.0938-1.8945-2.3594-3.832-3.7969-5.8125-0.4375 0.58594-1 1.3867-1.6875 2.4062-0.6875 1.0117-1.375 2.0938-2.0625 3.25-0.6875 1.1484-1.3359 2.2461-1.9375 3.2969-0.60547 1.0547-1.0547 1.8828-1.3438 2.4844h-8.5c1.3945-2.582 3.0234-5.2891 4.8906-8.125 1.8633-2.8438 3.9453-5.8594 6.25-9.0469l-10.672-15.969h9.0469l6.4531 10.328 6.3125-10.328h8.5156l-10.531 16.062c2.6875 3.4805 4.9375 6.6953 6.75 9.6406 1.8203 2.9492 3.2578 5.4297 4.3125 7.4375z"/>
</symbol>
<symbol id="ak" overflow="visible">
<path d="m6.2344 0.23438c-0.83594 0-1.5781-0.125-2.2344-0.375-0.65625-0.25781-1.2148-0.63281-1.6719-1.125-0.46094-0.5-0.8125-1.1016-1.0625-1.8125-0.24219-0.70703-0.35938-1.5234-0.35938-2.4531 0-0.92578 0.14062-1.7422 0.42188-2.4531 0.28125-0.70703 0.66406-1.3047 1.1562-1.7969 0.48828-0.5 1.0625-0.875 1.7188-1.125 0.66406-0.25781 1.375-0.39062 2.125-0.39062 0.45703 0 0.86719 0.039063 1.2344 0.10938 0.375 0.0625 0.69531 0.13672 0.96875 0.21875 0.28125 0.085938 0.50781 0.17969 0.6875 0.28125 0.1875 0.09375 0.31641 0.16406 0.39062 0.20312l-0.59375 1.6406c-0.25-0.15625-0.61719-0.30469-1.0938-0.45312-0.46875-0.14453-0.98047-0.21875-1.5312-0.21875-0.48047 0-0.92969 0.085937-1.3438 0.25-0.40625 0.16797-0.76562 0.41797-1.0781 0.75-0.30469 0.32422-0.53906 0.73438-0.70312 1.2344-0.16797 0.5-0.25 1.0781-0.25 1.7344 0 0.58594 0.0625 1.1211 0.1875 1.6094 0.13281 0.49219 0.33594 0.91406 0.60938 1.2656 0.28125 0.35547 0.63281 0.63281 1.0625 0.82812 0.42578 0.19922 0.9375 0.29688 1.5312 0.29688 0.70703 0 1.2852-0.066406 1.7344-0.20312 0.44531-0.14453 0.79688-0.28516 1.0469-0.42188l0.53125 1.6406c-0.125 0.085938-0.29688 0.17188-0.51562 0.26562-0.21875 0.085937-0.48047 0.16797-0.78125 0.25-0.29297 0.070312-0.625 0.12891-1 0.17188-0.36719 0.050781-0.76172 0.078125-1.1875 0.078125z"/>
</symbol>
<symbol id="l" overflow="visible">
<path d="m8.0625-0.25c-0.375 0.09375-0.85938 0.1875-1.4531 0.28125-0.59375 0.10156-1.2461 0.15625-1.9531 0.15625-0.66797 0-1.2305-0.09375-1.6875-0.28125-0.44922-0.1875-0.80859-0.45312-1.0781-0.79688-0.27344-0.34375-0.46875-0.75-0.59375-1.2188-0.11719-0.47656-0.17188-1-0.17188-1.5625v-4.6562h1.9375v4.3594c0 0.89844 0.12891 1.5391 0.39062 1.9219 0.25781 0.375 0.71094 0.5625 1.3594 0.5625 0.22656 0 0.47266-0.007813 0.73438-0.03125 0.25781-0.019531 0.45703-0.046875 0.59375-0.078125v-6.7344h1.9219z"/>
</symbol>
<symbol id="c" overflow="visible">
<path d="m5.9844-6.5938c-0.16797-0.050781-0.39062-0.10938-0.67188-0.17188s-0.60938-0.09375-0.98438-0.09375c-0.21094 0-0.43359 0.027344-0.67188 0.078125-0.24219 0.042969-0.40625 0.078125-0.5 0.10938v6.6719h-1.9219v-7.9375c0.36328-0.13281 0.82031-0.26562 1.375-0.39062 0.5625-0.125 1.1875-0.1875 1.875-0.1875 0.125 0 0.26953 0.011719 0.4375 0.03125 0.17578 0.011719 0.34766 0.03125 0.51562 0.0625 0.16406 0.023437 0.32812 0.054687 0.48438 0.09375 0.16406 0.042969 0.29688 0.078125 0.39062 0.10938z"/>
</symbol>
<symbol id="b" overflow="visible">
<path d="m0.76562-4.125c0-0.73828 0.10938-1.3828 0.32812-1.9375 0.21875-0.55078 0.50391-1.0078 0.85938-1.375 0.36328-0.36328 0.78125-0.64062 1.25-0.82812s0.94531-0.28125 1.4375-0.28125c1.1445 0 2.0352 0.35938 2.6719 1.0781 0.64453 0.71094 0.96875 1.7734 0.96875 3.1875 0 0.10547-0.007812 0.22656-0.015625 0.35938 0 0.125-0.007813 0.24609-0.015625 0.35938h-5.5c0.0625 0.66797 0.30078 1.1836 0.71875 1.5469 0.41406 0.36719 1.0234 0.54688 1.8281 0.54688 0.46875 0 0.89453-0.039062 1.2812-0.125 0.38281-0.082031 0.6875-0.17188 0.90625-0.26562l0.26562 1.5781c-0.10547 0.054688-0.25 0.10938-0.4375 0.17188-0.1875 0.054688-0.40234 0.10156-0.64062 0.14062-0.24219 0.050781-0.5 0.09375-0.78125 0.125-0.27344 0.03125-0.55469 0.046875-0.84375 0.046875-0.73047 0-1.3672-0.10938-1.9062-0.32812-0.54297-0.21875-0.99219-0.51953-1.3438-0.90625-0.34375-0.38281-0.60547-0.83594-0.78125-1.3594-0.16797-0.53125-0.25-1.1094-0.25-1.7344zm5.5938-0.85938c0-0.26953-0.039063-0.52344-0.10938-0.76562-0.074219-0.23828-0.18359-0.44141-0.32812-0.60938-0.14844-0.17578-0.32422-0.31641-0.53125-0.42188-0.21094-0.10156-0.45312-0.15625-0.73438-0.15625-0.30469 0-0.57031 0.058594-0.79688 0.17188-0.21875 0.11719-0.40625 0.26172-0.5625 0.4375-0.14844 0.17969-0.26172 0.38672-0.34375 0.625-0.085937 0.23047-0.14844 0.46875-0.1875 0.71875z"/>
</symbol>
<symbol id="m" overflow="visible">
<path d="m1.2344-8.0625c0.36328-0.10156 0.84375-0.20312 1.4375-0.29688 0.59375-0.10156 1.2539-0.15625 1.9844-0.15625 0.67578 0 1.2422 0.09375 1.7031 0.28125 0.45703 0.1875 0.82031 0.44922 1.0938 0.78125 0.26953 0.33594 0.45703 0.74219 0.5625 1.2188 0.11328 0.46875 0.17188 0.98438 0.17188 1.5469v4.6875h-1.9219v-4.3906c0-0.4375-0.03125-0.8125-0.09375-1.125-0.054687-0.32031-0.14844-0.57812-0.28125-0.76562-0.13672-0.19531-0.32031-0.34375-0.54688-0.4375-0.23047-0.09375-0.50781-0.14062-0.82812-0.14062-0.25 0-0.51172 0.023437-0.78125 0.0625-0.26172 0.03125-0.45312 0.058594-0.57812 0.078125v6.7188h-1.9219z"/>
</symbol>
<symbol id="u" overflow="visible">
<path d="m1.125-10.531 1.9375-0.32812v2.5312h2.9688v1.6094h-2.9688v3.3906c0 0.66797 0.10156 1.1484 0.3125 1.4375 0.21875 0.28125 0.58203 0.42188 1.0938 0.42188 0.34375 0 0.64844-0.035156 0.92188-0.10938 0.26953-0.070313 0.48828-0.14062 0.65625-0.20312l0.3125 1.5312c-0.21875 0.09375-0.51172 0.1875-0.875 0.28125-0.36719 0.10156-0.79297 0.15625-1.2812 0.15625-0.59375 0-1.0898-0.078125-1.4844-0.23438-0.39844-0.15625-0.71484-0.38281-0.95312-0.6875-0.23047-0.3125-0.39844-0.67969-0.5-1.1094-0.09375-0.42578-0.14062-0.91406-0.14062-1.4688z"/>
</symbol>
<symbol id="t" overflow="visible">
<path d="m6.9375-3.6406c0 0.54297-0.0625 1.0469-0.1875 1.5156-0.11719 0.46875-0.32031 0.88281-0.60938 1.2344-0.29297 0.35547-0.6875 0.63281-1.1875 0.82812-0.49219 0.19531-1.1094 0.29688-1.8594 0.29688-0.69922 0-1.3086-0.09375-1.8281-0.28125-0.51172-0.19531-0.90625-0.41016-1.1875-0.64062l0.71875-1.5781c0.26953 0.17969 0.59766 0.35156 0.98438 0.51562 0.38281 0.16797 0.78125 0.25 1.1875 0.25 0.67578 0 1.1641-0.16406 1.4688-0.5 0.3125-0.34375 0.46875-0.92969 0.46875-1.7656v-7.2812h2.0312z"/>
</symbol>
<symbol id="a" overflow="visible">
<path d="m4.1562-1.3594c0.59375 0 1.0469-0.03125 1.3594-0.09375v-2.1406c-0.10547-0.03125-0.26172-0.0625-0.46875-0.09375-0.19922-0.03125-0.41797-0.046875-0.65625-0.046875-0.21875 0-0.4375 0.015625-0.65625 0.046875s-0.41797 0.09375-0.59375 0.1875c-0.16797 0.085938-0.30859 0.20312-0.42188 0.35938-0.10547 0.14844-0.15625 0.33984-0.15625 0.57812 0 0.46094 0.14062 0.77734 0.42188 0.95312 0.28906 0.16797 0.67969 0.25 1.1719 0.25zm-0.15625-7.1875c0.63281 0 1.1719 0.085937 1.6094 0.25 0.4375 0.15625 0.78516 0.38281 1.0469 0.67188 0.25781 0.28125 0.44141 0.625 0.54688 1.0312 0.11328 0.40625 0.17188 0.85547 0.17188 1.3438v5.0625c-0.29297 0.0625-0.74219 0.13672-1.3438 0.21875-0.60547 0.09375-1.2812 0.14062-2.0312 0.14062-0.5 0-0.96094-0.046875-1.375-0.14062-0.40625-0.09375-0.76172-0.24219-1.0625-0.45312-0.29297-0.21875-0.52344-0.49219-0.6875-0.82812-0.15625-0.34375-0.23438-0.76562-0.23438-1.2656 0-0.47656 0.09375-0.87891 0.28125-1.2031 0.1875-0.33203 0.4375-0.60156 0.75-0.8125 0.32031-0.20703 0.69141-0.35156 1.1094-0.4375 0.41406-0.09375 0.85156-0.14062 1.3125-0.14062 0.21875 0 0.44141 0.015625 0.67188 0.046875 0.22656 0.023438 0.47656 0.0625 0.75 0.125v-0.32812c0-0.21875-0.027344-0.42578-0.078125-0.625-0.054688-0.20703-0.14844-0.38281-0.28125-0.53125-0.13672-0.15625-0.3125-0.27344-0.53125-0.35938-0.21875-0.09375-0.49219-0.14062-0.8125-0.14062-0.44922 0-0.85938 0.039063-1.2344 0.10938-0.36719 0.0625-0.66797 0.13672-0.90625 0.21875l-0.23438-1.5625c0.23828-0.082031 0.59375-0.16406 1.0625-0.25 0.46875-0.09375 0.96875-0.14062 1.5-0.14062z"/>
</symbol>
<symbol id="s" overflow="visible">
<path d="m3.3594 0c-0.53125-1.0938-1.0781-2.3477-1.6406-3.7656-0.55469-1.4141-1.0586-2.9375-1.5156-4.5625h2.0625c0.11328 0.46094 0.25 0.96094 0.40625 1.5 0.15625 0.53125 0.31641 1.0703 0.48438 1.6094 0.17578 0.53125 0.35938 1.0547 0.54688 1.5625 0.1875 0.5 0.35938 0.95312 0.51562 1.3594 0.16406-0.40625 0.33594-0.85938 0.51562-1.3594 0.17578-0.50781 0.35156-1.0312 0.53125-1.5625 0.17578-0.53906 0.34375-1.0781 0.5-1.6094 0.16406-0.53906 0.30469-1.0391 0.42188-1.5h1.9844c-0.46094 1.625-0.96875 3.1484-1.5312 4.5625-0.55469 1.418-1.0938 2.6719-1.625 3.7656z"/>
</symbol>
<symbol id="aj" overflow="visible">
<path d="m1.3281 0v-11.047h6.9688v1.7031h-4.9688v2.8281h4.4219v1.7031h-4.4219v4.8125z"/>
</symbol>
<symbol id="ai" overflow="visible">
<path d="m7.875 0c-0.3125-0.625-0.70312-1.3125-1.1719-2.0625-0.46094-0.75781-0.94531-1.4883-1.4531-2.1875-0.21875 0.27344-0.45312 0.60156-0.70312 0.98438-0.25 0.38672-0.5 0.77734-0.75 1.1719-0.25 0.39844-0.48047 0.78125-0.6875 1.1562-0.21094 0.375-0.38281 0.6875-0.51562 0.9375h-2.2812c0.47656-0.90625 1.0312-1.832 1.6562-2.7812 0.63281-0.94531 1.3164-1.9414 2.0469-2.9844l-3.5312-5.2812h2.3906l2.4375 3.7812 2.4062-3.7812h2.2969l-3.5 5.2656c0.8125 1.0938 1.5234 2.1328 2.1406 3.1094 0.625 0.96875 1.1484 1.8594 1.5781 2.6719z"/>
</symbol>
<symbol id="ah" overflow="visible">
<path d="m4.3594-11.156c1.5938 0 2.8125 0.29297 3.6562 0.875 0.85156 0.58594 1.2812 1.4766 1.2812 2.6719 0 1.5-0.74219 2.5156-2.2188 3.0469 0.19531 0.25 0.42188 0.55469 0.67188 0.90625 0.25781 0.34375 0.51953 0.72656 0.78125 1.1406 0.26953 0.40625 0.52344 0.82422 0.76562 1.25 0.25 0.42969 0.47266 0.85156 0.67188 1.2656h-2.25c-0.21094-0.38281-0.43359-0.76953-0.67188-1.1562-0.23047-0.38281-0.46484-0.75781-0.70312-1.125-0.23047-0.375-0.46484-0.72266-0.70312-1.0469-0.23047-0.32031-0.44922-0.60938-0.65625-0.85938-0.14844 0.011719-0.27344 0.015625-0.375 0.015625h-0.3125-0.96875v4.1719h-2v-10.891c0.48828-0.10156 1.0078-0.17188 1.5625-0.20312 0.55078-0.039062 1.0391-0.0625 1.4688-0.0625zm0.15625 1.7344c-0.42969 0-0.82422 0.015625-1.1875 0.046875v3.5781h0.875c0.48828 0 0.92188-0.023437 1.2969-0.078125 0.375-0.050781 0.6875-0.14453 0.9375-0.28125 0.25-0.14453 0.4375-0.33203 0.5625-0.5625 0.125-0.23828 0.1875-0.53906 0.1875-0.90625 0-0.33203-0.0625-0.61328-0.1875-0.84375-0.125-0.23828-0.30859-0.42578-0.54688-0.5625-0.24219-0.14453-0.52734-0.24219-0.85938-0.29688-0.33594-0.0625-0.69531-0.09375-1.0781-0.09375z"/>
</symbol>
<symbol id="g" overflow="visible">
<path d="m4.125 0.15625c-0.57422-0.011719-1.0469-0.074219-1.4219-0.1875-0.375-0.11328-0.67969-0.28125-0.90625-0.5-0.21875-0.21875-0.375-0.48828-0.46875-0.8125-0.085937-0.32031-0.125-0.69141-0.125-1.1094v-9.5938l1.9219-0.32812v9.5469c0 0.24219 0.015625 0.4375 0.046875 0.59375 0.039063 0.15625 0.10938 0.29297 0.20312 0.40625 0.09375 0.11719 0.22266 0.20312 0.39062 0.26562 0.16406 0.054688 0.37891 0.09375 0.64062 0.125z"/>
</symbol>
<symbol id="e" overflow="visible">
<path d="m3.3125-1.3906c0.50781 0 0.87891-0.054687 1.1094-0.17188 0.23828-0.125 0.35938-0.33594 0.35938-0.64062 0-0.26953-0.125-0.49219-0.375-0.67188-0.25-0.1875-0.66406-0.38281-1.2344-0.59375-0.35547-0.13281-0.67969-0.26953-0.96875-0.40625-0.29297-0.14453-0.54688-0.3125-0.76562-0.5-0.21094-0.19531-0.375-0.42969-0.5-0.70312-0.11719-0.26953-0.17188-0.60156-0.17188-1 0-0.75781 0.28125-1.3594 0.84375-1.7969 0.5625-0.44531 1.3281-0.67188 2.2969-0.67188 0.48828 0 0.95703 0.046875 1.4062 0.14062 0.44531 0.09375 0.78125 0.18359 1 0.26562l-0.35938 1.5625c-0.21094-0.09375-0.48047-0.17969-0.8125-0.26562-0.32422-0.082031-0.70312-0.125-1.1406-0.125-0.39844 0-0.71875 0.070312-0.96875 0.20312-0.24219 0.13672-0.35938 0.33984-0.35938 0.60938 0 0.14844 0.023437 0.27344 0.078125 0.375 0.050781 0.10547 0.13281 0.20312 0.25 0.29688 0.11328 0.085937 0.26562 0.17188 0.45312 0.26562 0.19531 0.09375 0.42969 0.1875 0.70312 0.28125 0.45703 0.16797 0.84375 0.33594 1.1562 0.5 0.32031 0.16797 0.58594 0.35547 0.79688 0.5625 0.20703 0.21094 0.35938 0.44922 0.45312 0.71875 0.09375 0.26172 0.14062 0.57422 0.14062 0.9375 0 0.80469-0.29688 1.4062-0.89062 1.8125-0.58594 0.40625-1.4219 0.60938-2.5156 0.60938-0.73047 0-1.3203-0.0625-1.7656-0.1875-0.44922-0.11328-0.76172-0.20703-0.9375-0.28125l0.32812-1.6094c0.28906 0.11719 0.63281 0.22656 1.0312 0.32812 0.39453 0.10547 0.84766 0.15625 1.3594 0.15625z"/>
</symbol>
<symbol id="ag" overflow="visible">
<path d="m0.6875-2.9375c0-0.39453 0.054688-0.75781 0.17188-1.0938 0.125-0.33203 0.28906-0.62891 0.5-0.89062 0.20703-0.26953 0.44531-0.50391 0.71875-0.70312 0.26953-0.19531 0.55469-0.37891 0.85938-0.54688-0.32422-0.33203-0.58594-0.69141-0.78125-1.0781-0.19922-0.38281-0.29688-0.78906-0.29688-1.2188 0-0.88281 0.26953-1.5781 0.8125-2.0781 0.55078-0.5 1.2734-0.75 2.1719-0.75 0.45703 0 0.86328 0.0625 1.2188 0.1875 0.35156 0.125 0.64453 0.30469 0.875 0.53125 0.23828 0.21875 0.42188 0.48047 0.54688 0.78125 0.125 0.30469 0.1875 0.625 0.1875 0.96875s-0.058594 0.66797-0.17188 0.96875c-0.11719 0.29297-0.27344 0.5625-0.46875 0.8125-0.1875 0.25-0.40625 0.48047-0.65625 0.6875-0.24219 0.19922-0.50781 0.38281-0.79688 0.54688l2.1875 2.1875c0.14453-0.26953 0.26562-0.57812 0.35938-0.92188s0.16406-0.67969 0.21875-1.0156l1.625 0.20312c-0.0625 0.42969-0.17969 0.90234-0.34375 1.4219-0.16797 0.51172-0.39062 1-0.67188 1.4688 0.35156 0.39844 0.69141 0.80469 1.0156 1.2188 0.32031 0.41797 0.59375 0.83594 0.8125 1.25h-2.0156c-0.10547-0.17578-0.24219-0.36719-0.40625-0.57812-0.16797-0.21875-0.33984-0.41406-0.51562-0.59375-0.4375 0.38672-0.9375 0.70312-1.5 0.95312-0.5625 0.23828-1.1992 0.35938-1.9062 0.35938-0.71875 0-1.3203-0.09375-1.7969-0.28125-0.48047-0.19531-0.86719-0.44141-1.1562-0.73438-0.29297-0.30078-0.5-0.62891-0.625-0.98438-0.11719-0.36328-0.17188-0.72266-0.17188-1.0781zm1.8438-0.125c0 0.17969 0.03125 0.36719 0.09375 0.5625 0.070312 0.1875 0.1875 0.36719 0.34375 0.53125 0.15625 0.16797 0.35938 0.30469 0.60938 0.40625 0.25 0.10547 0.55078 0.15625 0.90625 0.15625 0.47656 0 0.91016-0.070312 1.2969-0.21875 0.38281-0.14453 0.71875-0.35938 1-0.64062l-2.8125-2.8438c-0.15625 0.085937-0.32422 0.18359-0.5 0.29688-0.16797 0.11719-0.32031 0.25781-0.45312 0.42188-0.13672 0.16797-0.25 0.35938-0.34375 0.57812s-0.14062 0.46875-0.14062 0.75zm3.4688-5.6875c0-0.3125-0.10547-0.57031-0.3125-0.78125-0.19922-0.21875-0.49219-0.32812-0.875-0.32812-0.40625 0-0.71875 0.125-0.9375 0.375-0.21094 0.24219-0.3125 0.54297-0.3125 0.90625 0 0.3125 0.082031 0.62109 0.25 0.92188 0.17578 0.30469 0.41406 0.58984 0.71875 0.85938 0.19531-0.10156 0.38281-0.21875 0.5625-0.34375 0.17578-0.125 0.32812-0.26562 0.45312-0.42188 0.13281-0.16406 0.24219-0.34375 0.32812-0.53125 0.082031-0.19531 0.125-0.41406 0.125-0.65625z"/>
</symbol>
<symbol id="af" overflow="visible">
<path d="m1.3281 0v-11.047h7.0938v1.7031h-5.0938v2.7344h4.5312v1.6719h-4.5312v3.2344h5.4688v1.7031z"/>
</symbol>
<symbol id="ae" overflow="visible">
<path d="m8.0312-8.3281c-0.86719 3.1562-1.8672 6.0234-3 8.5938-0.21094 0.47656-0.42969 0.89062-0.65625 1.2344-0.21875 0.34375-0.46875 0.625-0.75 0.84375-0.27344 0.21875-0.57812 0.37891-0.92188 0.48438-0.33594 0.10156-0.72656 0.15625-1.1719 0.15625-0.30469 0-0.60156-0.03125-0.89062-0.09375-0.29297-0.0625-0.51172-0.13672-0.65625-0.21875l0.34375-1.5469c0.38281 0.15625 0.76562 0.23438 1.1406 0.23438 0.5 0 0.89062-0.12109 1.1719-0.35938 0.28125-0.24219 0.52344-0.60938 0.73438-1.1094-0.60547-1.1641-1.1875-2.4414-1.75-3.8281-0.55469-1.3828-1.0469-2.8477-1.4844-4.3906h2.0625c0.10156 0.4375 0.23438 0.91797 0.39062 1.4375 0.15625 0.52344 0.32031 1.0547 0.5 1.5938 0.17578 0.53125 0.36328 1.0625 0.5625 1.5938 0.20703 0.53125 0.41016 1.0273 0.60938 1.4844 0.34375-0.94531 0.66016-1.9531 0.95312-3.0156 0.30078-1.0703 0.57812-2.1016 0.82812-3.0938z"/>
</symbol>
<symbol id="ad" overflow="visible">
<path d="m0.35938-5.4375h4.2969v1.7656h-4.2969z"/>
</symbol>
<symbol id="ac" overflow="visible">
<path d="m8.6562 0c-0.14844-0.4375-0.30469-0.86328-0.46875-1.2812-0.15625-0.42578-0.30859-0.86328-0.45312-1.3125h-4.6562c-0.14844 0.44922-0.29688 0.88672-0.45312 1.3125-0.15625 0.42969-0.30859 0.85547-0.45312 1.2812h-2.0938c0.41406-1.1758 0.80469-2.2656 1.1719-3.2656 0.375-1 0.73828-1.9414 1.0938-2.8281 0.36328-0.89453 0.71875-1.7422 1.0625-2.5469 0.35156-0.8125 0.71875-1.6133 1.0938-2.4062h1.8906c0.375 0.79297 0.73438 1.5938 1.0781 2.4062 0.35156 0.80469 0.70703 1.6523 1.0625 2.5469 0.35156 0.88672 0.71875 1.8281 1.0938 2.8281 0.38281 1 0.78516 2.0898 1.2031 3.2656zm-3.25-8.9062c-0.25 0.5625-0.53125 1.25-0.84375 2.0625-0.3125 0.80469-0.63672 1.6797-0.96875 2.625h3.625c-0.34375-0.94531-0.67969-1.8281-1-2.6406-0.3125-0.82031-0.58594-1.5039-0.8125-2.0469z"/>
</symbol>
<symbol id="k" overflow="visible">
<path d="m0.76562-4.1562c0-0.61328 0.09375-1.1875 0.28125-1.7188 0.19531-0.53906 0.47266-1.0078 0.82812-1.4062 0.35156-0.39453 0.78516-0.70312 1.2969-0.92188 0.50781-0.22656 1.082-0.34375 1.7188-0.34375 0.78906 0 1.5352 0.14844 2.2344 0.4375l-0.42188 1.5781c-0.21875-0.09375-0.46875-0.17188-0.75-0.23438-0.28125-0.070313-0.58594-0.10938-0.90625-0.10938-0.75 0-1.3242 0.24219-1.7188 0.71875-0.39844 0.46875-0.59375 1.1367-0.59375 2 0 0.82422 0.1875 1.4805 0.5625 1.9688 0.375 0.48047 1.0039 0.71875 1.8906 0.71875 0.32031 0 0.64062-0.03125 0.95312-0.09375 0.32031-0.0625 0.60156-0.14062 0.84375-0.23438l0.26562 1.5938c-0.21094 0.10547-0.53125 0.19922-0.96875 0.28125-0.42969 0.082031-0.87109 0.125-1.3281 0.125-0.71094 0-1.3281-0.10938-1.8594-0.32812-0.52344-0.21875-0.95312-0.51953-1.2969-0.90625-0.34375-0.38281-0.60547-0.84375-0.78125-1.375-0.16797-0.53906-0.25-1.125-0.25-1.75z"/>
</symbol>
<symbol id="ab" overflow="visible">
<path d="m4.6562 0.125c-0.58594 0-1.1719-0.023438-1.7656-0.0625-0.59375-0.03125-1.1172-0.10156-1.5625-0.21875v-10.734c0.22656-0.039063 0.47266-0.078125 0.73438-0.10938 0.26953-0.039062 0.53906-0.070312 0.8125-0.09375 0.28125-0.019531 0.55469-0.035156 0.82812-0.046875 0.26953-0.007813 0.53125-0.015625 0.78125-0.015625 0.66406 0 1.2852 0.054688 1.8594 0.15625 0.57031 0.09375 1.0664 0.26172 1.4844 0.5 0.42578 0.23047 0.75391 0.53906 0.98438 0.92188 0.23828 0.38672 0.35938 0.85938 0.35938 1.4219 0 0.52344-0.125 0.96875-0.375 1.3438-0.25 0.36719-0.60156 0.66406-1.0469 0.89062 0.66406 0.21875 1.1562 0.54688 1.4688 0.98438 0.32031 0.4375 0.48438 0.99219 0.48438 1.6562 0 1.1367-0.41797 1.9922-1.25 2.5625-0.82422 0.5625-2.0898 0.84375-3.7969 0.84375zm-1.3594-5.0938v3.3594c0.22656 0.023437 0.46875 0.039063 0.71875 0.046875 0.25781 0.011719 0.49219 0.015625 0.70312 0.015625 0.41406 0 0.80078-0.023437 1.1562-0.078125 0.35156-0.050781 0.66016-0.14453 0.92188-0.28125 0.25781-0.13281 0.46875-0.3125 0.625-0.53125s0.23438-0.50391 0.23438-0.85938c0-0.625-0.23047-1.0547-0.6875-1.2969-0.46094-0.25-1.0938-0.375-1.9062-0.375zm0-1.5781h1.4219c0.75781 0 1.3594-0.10938 1.7969-0.32812s0.65625-0.60938 0.65625-1.1719c0-0.53125-0.23047-0.90625-0.6875-1.125-0.44922-0.22656-1.0312-0.34375-1.75-0.34375-0.3125 0-0.58984 0.007813-0.82812 0.015625-0.24219 0.011719-0.44531 0.027344-0.60938 0.046875z"/>
</symbol>
<symbol id="j" overflow="visible">
<path d="m3.1719 0h-1.9219v-8.3281h1.9219zm0.20312-10.781c0 0.36719-0.12109 0.65625-0.35938 0.875-0.23047 0.21094-0.5 0.3125-0.8125 0.3125-0.33594 0-0.62109-0.10156-0.85938-0.3125-0.23047-0.21875-0.34375-0.50781-0.34375-0.875 0-0.36328 0.11328-0.64844 0.34375-0.85938 0.23828-0.21875 0.52344-0.32812 0.85938-0.32812 0.3125 0 0.58203 0.10938 0.8125 0.32812 0.23828 0.21094 0.35938 0.49609 0.35938 0.85938z"/>
</symbol>
<symbol id="r" overflow="visible">
<path d="m2.7344-4.1875c0 0.84375 0.20312 1.5117 0.60938 2 0.40625 0.48047 0.96094 0.71875 1.6719 0.71875 0.3125 0 0.57812-0.007812 0.79688-0.03125 0.21875-0.03125 0.39453-0.0625 0.53125-0.09375v-4.7812c-0.16797-0.11328-0.39062-0.22266-0.67188-0.32812-0.28125-0.10156-0.58594-0.15625-0.90625-0.15625-0.69922 0-1.2148 0.24219-1.5469 0.71875-0.32422 0.48047-0.48438 1.1328-0.48438 1.9531zm5.5312 3.9375c-0.375 0.11719-0.85547 0.21875-1.4375 0.3125-0.58594 0.09375-1.1953 0.14062-1.8281 0.14062-0.65625 0-1.2461-0.10156-1.7656-0.29688-0.52344-0.20703-0.96484-0.5-1.3281-0.875-0.36719-0.375-0.64844-0.82812-0.84375-1.3594-0.19922-0.53906-0.29688-1.1445-0.29688-1.8125 0-0.65625 0.082031-1.25 0.25-1.7812 0.16406-0.53906 0.40625-1.0039 0.71875-1.3906 0.32031-0.38281 0.71094-0.67969 1.1719-0.89062 0.45703-0.20703 0.98438-0.3125 1.5781-0.3125 0.39453 0 0.75 0.054687 1.0625 0.15625 0.3125 0.09375 0.57812 0.19922 0.79688 0.3125v-4l1.9219-0.32812z"/>
</symbol>
<symbol id="q" overflow="visible">
<path d="m4.625-12.375c0.44531 0 0.83594 0.042969 1.1719 0.125 0.34375 0.085938 0.59766 0.15625 0.76562 0.21875l-0.35938 1.5938c-0.1875-0.082031-0.40234-0.14844-0.64062-0.20312-0.23047-0.050781-0.48438-0.078125-0.76562-0.078125-0.3125 0-0.57422 0.046875-0.78125 0.14062-0.21094 0.085937-0.38281 0.20312-0.51562 0.35938-0.125 0.15625-0.21484 0.35156-0.26562 0.57812-0.054687 0.23047-0.078125 0.48047-0.078125 0.75v0.5625h3.0312v1.6094h-3.0312v6.7188h-1.9219v-8.9219c0-1.0703 0.28125-1.9141 0.84375-2.5312 0.5625-0.61328 1.4102-0.92188 2.5469-0.92188z"/>
</symbol>
<symbol id="aa" overflow="visible">
<path d="m8.7656-4.1719c0 0.65625-0.10156 1.2578-0.29688 1.7969-0.1875 0.54297-0.46094 1.0078-0.8125 1.3906-0.34375 0.375-0.76562 0.67188-1.2656 0.89062-0.49219 0.20703-1.0312 0.3125-1.625 0.3125s-1.1367-0.10547-1.625-0.3125c-0.49219-0.21875-0.91406-0.51562-1.2656-0.89062-0.34375-0.38281-0.61719-0.84766-0.8125-1.3906-0.19922-0.53906-0.29688-1.1406-0.29688-1.7969s0.097656-1.2539 0.29688-1.7969c0.19531-0.53906 0.47266-1 0.82812-1.375 0.35156-0.38281 0.77344-0.67969 1.2656-0.89062 0.48828-0.20703 1.0234-0.3125 1.6094-0.3125 0.58203 0 1.1172 0.10547 1.6094 0.3125 0.5 0.21094 0.92188 0.50781 1.2656 0.89062 0.35156 0.375 0.62891 0.83594 0.82812 1.375 0.19531 0.54297 0.29688 1.1406 0.29688 1.7969zm-1.9688 0c0-0.83203-0.18359-1.4883-0.54688-1.9688-0.35547-0.48828-0.85156-0.73438-1.4844-0.73438-0.63672 0-1.1367 0.24609-1.5 0.73438-0.35547 0.48047-0.53125 1.1367-0.53125 1.9688 0 0.83594 0.17578 1.4961 0.53125 1.9844 0.36328 0.49219 0.86328 0.73438 1.5 0.73438 0.63281 0 1.1289-0.24219 1.4844-0.73438 0.36328-0.48828 0.54688-1.1484 0.54688-1.9844z"/>
</symbol>
<symbol id="z" overflow="visible">
<path d="m8.2969-1.7344v1.7344h-6.9688v-11.047h2v9.3125z"/>
</symbol>
<symbol id="p" overflow="visible">
<path d="m4.2188-5.6094 1.7812-2.7188h2.0156l-2.7344 3.9219c0.57031 0.75 1.1172 1.5078 1.6406 2.2656 0.53125 0.76172 0.96094 1.4766 1.2969 2.1406h-2.0781c-0.09375-0.19531-0.21875-0.42578-0.375-0.6875-0.15625-0.25781-0.32422-0.53125-0.5-0.8125-0.17969-0.28125-0.35938-0.55469-0.54688-0.82812-0.1875-0.28125-0.375-0.54688-0.5625-0.79688-0.36719 0.48047-0.73047 1.0117-1.0938 1.5938-0.35547 0.57422-0.64844 1.0859-0.875 1.5312h-1.9844c0.16406-0.32031 0.35938-0.66016 0.57812-1.0156 0.21875-0.36328 0.45312-0.73438 0.70312-1.1094 0.25781-0.375 0.52344-0.75 0.79688-1.125 0.26953-0.38281 0.53906-0.74219 0.8125-1.0781l-2.7656-4h2.125z"/>
</symbol>
<symbol id="i" overflow="visible">
<path d="m5.9844-4.3906c0-0.86328-0.10938-1.4883-0.32812-1.875-0.21875-0.39453-0.625-0.59375-1.2188-0.59375-0.21875 0-0.46094 0.023437-0.71875 0.0625-0.25 0.03125-0.4375 0.058594-0.5625 0.078125v6.7188h-1.9219v-8.0625c0.36328-0.10156 0.84766-0.20312 1.4531-0.29688 0.60156-0.10156 1.2383-0.15625 1.9062-0.15625 0.57031 0 1.0391 0.078125 1.4062 0.23438 0.36328 0.14844 0.67188 0.33984 0.92188 0.57812 0.11328-0.082031 0.25781-0.17188 0.4375-0.26562 0.1875-0.09375 0.39062-0.17578 0.60938-0.25 0.21875-0.082031 0.45312-0.14844 0.70312-0.20312 0.25-0.0625 0.50391-0.09375 0.76562-0.09375 0.64453 0 1.1758 0.09375 1.5938 0.28125 0.42578 0.1875 0.75781 0.44922 1 0.78125 0.23828 0.33594 0.39844 0.74219 0.48438 1.2188 0.09375 0.46875 0.14062 0.98438 0.14062 1.5469v4.6875h-1.9375v-4.3906c0-0.86328-0.10547-1.4883-0.3125-1.875-0.21094-0.39453-0.61719-0.59375-1.2188-0.59375-0.3125 0-0.60938 0.054687-0.89062 0.15625-0.27344 0.10547-0.47656 0.20312-0.60938 0.29688 0.082031 0.26172 0.14062 0.54297 0.17188 0.84375 0.03125 0.30469 0.046875 0.62109 0.046875 0.95312v4.6094h-1.9219z"/>
</symbol>
<symbol id="f" overflow="visible">
<path d="m4.5-5.375c-0.3125 0-0.61719 0.027344-0.90625 0.078125-0.28125 0.054687-0.53906 0.13672-0.76562 0.25-0.011719 0.085937-0.023437 0.17969-0.03125 0.28125v0.28125c0 0.42969 0.023437 0.83594 0.078125 1.2188 0.0625 0.375 0.16016 0.70312 0.29688 0.98438 0.14453 0.28125 0.34375 0.50781 0.59375 0.67188 0.25 0.15625 0.5625 0.23438 0.9375 0.23438 0.30078 0 0.5625-0.0625 0.78125-0.1875s0.39453-0.28516 0.53125-0.48438c0.14453-0.20703 0.25-0.42969 0.3125-0.67188 0.0625-0.23828 0.09375-0.46875 0.09375-0.6875 0-0.63281-0.15625-1.1172-0.46875-1.4531-0.30469-0.34375-0.78906-0.51562-1.4531-0.51562zm0.23438-1.5312c0.65625 0 1.2109 0.09375 1.6719 0.28125 0.46875 0.1875 0.84375 0.44531 1.125 0.76562 0.28906 0.3125 0.50391 0.68359 0.64062 1.1094 0.13281 0.41797 0.20312 0.85547 0.20312 1.3125 0 0.40625-0.074219 0.82812-0.21875 1.2656-0.14844 0.4375-0.37109 0.83594-0.67188 1.1875-0.30469 0.35547-0.68359 0.64844-1.1406 0.875-0.46094 0.22656-1 0.34375-1.625 0.34375-1.2617 0-2.2266-0.41406-2.8906-1.25-0.66797-0.83203-1-1.9844-1-3.4531 0-1.0625 0.15625-2.0039 0.46875-2.8281 0.3125-0.82031 0.75391-1.5156 1.3281-2.0781 0.58203-0.5625 1.2852-0.98828 2.1094-1.2812 0.83203-0.28906 1.7578-0.44141 2.7812-0.45312l0.125 1.5938c-0.57422 0.011719-1.1094 0.074219-1.6094 0.1875-0.5 0.10547-0.94922 0.27734-1.3438 0.51562-0.39844 0.23047-0.73438 0.53125-1.0156 0.90625s-0.49609 0.83594-0.64062 1.375c0.51953-0.25 1.0859-0.375 1.7031-0.375z"/>
</symbol>
<symbol id="h" overflow="visible">
<path d="m5.375-8.6719c-0.26172 0.3125-0.52734 0.64844-0.79688 1-0.27344 0.34375-0.53906 0.71094-0.79688 1.0938-0.25 0.375-0.49609 0.76562-0.73438 1.1719-0.23047 0.39844-0.4375 0.79297-0.625 1.1875h2.9531zm1.875-2.375v6.8281h1.25v1.5781h-1.25v2.6406h-1.875v-2.6406h-4.8438v-1.375c0.20703-0.46875 0.48828-1.0039 0.84375-1.6094 0.35156-0.60156 0.75-1.2227 1.1875-1.8594 0.4375-0.64453 0.89844-1.2734 1.3906-1.8906 0.48828-0.61328 0.97656-1.1719 1.4688-1.6719z"/>
</symbol>
<symbol id="d" overflow="visible">
<path d="m2.9531-4.6875c0 0.36719-0.125 0.66797-0.375 0.90625-0.25 0.23047-0.54688 0.34375-0.89062 0.34375-0.36719 0-0.67188-0.11328-0.92188-0.34375-0.24219-0.23828-0.35938-0.53906-0.35938-0.90625 0-0.375 0.11719-0.67969 0.35938-0.92188 0.25-0.23828 0.55469-0.35938 0.92188-0.35938 0.34375 0 0.64062 0.12109 0.89062 0.35938 0.25 0.24219 0.375 0.54688 0.375 0.92188z"/>
</symbol>
<symbol id="y" overflow="visible">
<path d="m1.2344 0v-12.047l1.9219-0.32812v4.1406c0.20703-0.070313 0.45312-0.13281 0.73438-0.1875 0.28125-0.0625 0.5625-0.09375 0.84375-0.09375 0.66406 0 1.2188 0.09375 1.6562 0.28125 0.44531 0.1875 0.80078 0.44922 1.0625 0.78125 0.26953 0.33594 0.45703 0.73438 0.5625 1.2031 0.11328 0.46875 0.17188 0.99219 0.17188 1.5625v4.6875h-1.9219v-4.3906c0-0.4375-0.03125-0.8125-0.09375-1.125-0.054687-0.32031-0.14844-0.57812-0.28125-0.76562-0.13672-0.19531-0.32031-0.34375-0.54688-0.4375-0.21875-0.09375-0.49219-0.14062-0.8125-0.14062-0.26172 0-0.52734 0.03125-0.79688 0.09375-0.26172 0.054687-0.45312 0.10156-0.57812 0.14062v6.625z"/>
</symbol>
<symbol id="o" overflow="visible">
<path d="m3.7656 0.23438c-0.29297 0-0.58984-0.023437-0.89062-0.0625-0.30469-0.03125-0.58984-0.078125-0.85938-0.14062-0.27344-0.050781-0.52344-0.10938-0.75-0.17188-0.21875-0.070313-0.38672-0.14062-0.5-0.20312l0.375-1.6562c0.22656 0.11719 0.55078 0.24219 0.96875 0.375 0.42578 0.125 0.95703 0.1875 1.5938 0.1875 0.83203 0 1.4375-0.16016 1.8125-0.48438 0.375-0.32031 0.5625-0.75391 0.5625-1.2969 0-0.35156-0.074219-0.64453-0.21875-0.875-0.14844-0.23828-0.34375-0.42578-0.59375-0.5625-0.25-0.14453-0.53906-0.24219-0.85938-0.29688-0.32422-0.0625-0.66797-0.09375-1.0312-0.09375h-0.65625v-1.5625h0.79688c0.25 0 0.5-0.019531 0.75-0.0625 0.25-0.050781 0.47266-0.14062 0.67188-0.26562 0.20703-0.125 0.375-0.28516 0.5-0.48438 0.125-0.20703 0.1875-0.46875 0.1875-0.78125 0-0.25781-0.046875-0.47656-0.14062-0.65625-0.09375-0.17578-0.21875-0.32031-0.375-0.4375-0.15625-0.125-0.33984-0.21094-0.54688-0.26562-0.19922-0.050781-0.40625-0.078125-0.625-0.078125-0.48047 0-0.90625 0.074219-1.2812 0.21875-0.36719 0.13672-0.69531 0.29688-0.98438 0.48438l-0.70312-1.4375c0.15625-0.09375 0.33594-0.19141 0.54688-0.29688 0.20703-0.11328 0.44141-0.21875 0.70312-0.3125 0.25781-0.09375 0.53516-0.16406 0.82812-0.21875 0.30078-0.0625 0.61719-0.09375 0.95312-0.09375 0.61328 0 1.1445 0.074219 1.5938 0.21875 0.44531 0.14844 0.81641 0.35547 1.1094 0.625 0.28906 0.27344 0.50781 0.59375 0.65625 0.96875 0.14453 0.36719 0.21875 0.76562 0.21875 1.2031 0 0.51172-0.14844 0.96875-0.4375 1.375-0.28125 0.39844-0.64062 0.69922-1.0781 0.90625 0.57031 0.21094 1.0469 0.54688 1.4219 1.0156s0.5625 1.0703 0.5625 1.7969c0 0.49219-0.089844 0.94531-0.26562 1.3594-0.16797 0.41797-0.42969 0.78125-0.78125 1.0938-0.34375 0.30469-0.78906 0.54297-1.3281 0.71875-0.53125 0.16406-1.168 0.25-1.9062 0.25z"/>
</symbol>
<symbol id="x" overflow="visible">
<path d="m8.2812-2.9688c0 0.46094-0.078125 0.88672-0.23438 1.2812-0.15625 0.39844-0.39844 0.74219-0.71875 1.0312-0.3125 0.28125-0.71094 0.5-1.1875 0.65625-0.46875 0.15625-1.0117 0.23438-1.625 0.23438-0.73047 0-1.3359-0.10156-1.8125-0.29688-0.46875-0.19531-0.85156-0.45312-1.1406-0.76562-0.29297-0.3125-0.5-0.64453-0.625-1-0.11719-0.35156-0.17188-0.69141-0.17188-1.0156 0-0.3125 0.039063-0.60156 0.125-0.875 0.09375-0.26953 0.21875-0.51953 0.375-0.75 0.16406-0.22656 0.34766-0.4375 0.54688-0.625 0.20703-0.19531 0.42188-0.36719 0.64062-0.51562-0.49219-0.34375-0.85547-0.71094-1.0938-1.1094-0.24219-0.39453-0.35938-0.87891-0.35938-1.4531 0-0.41406 0.082031-0.8125 0.25-1.1875 0.16406-0.375 0.39844-0.70703 0.70312-1 0.3125-0.28906 0.6875-0.51953 1.125-0.6875 0.4375-0.16406 0.92188-0.25 1.4531-0.25 0.625 0 1.1562 0.089844 1.5938 0.26562 0.44531 0.17969 0.8125 0.41406 1.0938 0.70312 0.28125 0.29297 0.48438 0.61719 0.60938 0.96875 0.125 0.34375 0.1875 0.68359 0.1875 1.0156 0 0.58594-0.16406 1.1016-0.48438 1.5469-0.3125 0.44922-0.67969 0.80859-1.0938 1.0781 0.625 0.33594 1.0859 0.72656 1.3906 1.1719 0.30078 0.44922 0.45312 0.97656 0.45312 1.5781zm-5.625 0.09375c0 0.16797 0.03125 0.33984 0.09375 0.51562 0.070312 0.17969 0.17969 0.34375 0.32812 0.5 0.14453 0.14844 0.33203 0.27344 0.5625 0.375 0.23828 0.09375 0.53516 0.14062 0.89062 0.14062 0.3125 0 0.58203-0.039062 0.8125-0.125 0.23828-0.082031 0.42969-0.19531 0.57812-0.34375 0.15625-0.14453 0.26953-0.30469 0.34375-0.48438 0.070313-0.1875 0.10938-0.37891 0.10938-0.57812 0-0.28906-0.058594-0.54688-0.17188-0.76562-0.11719-0.22656-0.28125-0.42578-0.5-0.59375-0.21875-0.16406-0.48047-0.30469-0.78125-0.42188-0.29297-0.125-0.62109-0.23438-0.98438-0.32812-0.38672 0.24219-0.69922 0.53125-0.9375 0.875-0.23047 0.34375-0.34375 0.75781-0.34375 1.2344zm3.4844-5.4375c0-0.14453-0.03125-0.29688-0.09375-0.45312-0.0625-0.16406-0.16406-0.31641-0.29688-0.45312-0.125-0.14453-0.29297-0.26562-0.5-0.35938-0.19922-0.09375-0.4375-0.14062-0.71875-0.14062-0.29297 0-0.54297 0.046875-0.75 0.14062-0.21094 0.085937-0.375 0.19922-0.5 0.34375-0.125 0.14844-0.21875 0.30469-0.28125 0.46875-0.0625 0.15625-0.09375 0.32031-0.09375 0.48438 0 0.39844 0.14844 0.77734 0.45312 1.1406 0.30078 0.36719 0.80469 0.65234 1.5156 0.85938 0.39453-0.23828 0.70312-0.51562 0.92188-0.82812 0.22656-0.32031 0.34375-0.72266 0.34375-1.2031z"/>
</symbol>
<symbol id="n" overflow="visible">
<path d="m6.75-4.125c0-0.86328-0.19531-1.5352-0.57812-2.0156-0.38672-0.47656-1.0117-0.71875-1.875-0.71875-0.17969 0-0.36719 0.011719-0.5625 0.03125-0.19922 0.011719-0.39062 0.046875-0.57812 0.10938v4.7656c0.16406 0.11719 0.39062 0.22656 0.67188 0.32812 0.28125 0.09375 0.58203 0.14062 0.90625 0.14062 0.69531 0 1.207-0.23828 1.5312-0.71875 0.32031-0.47656 0.48438-1.1172 0.48438-1.9219zm1.9844-0.03125c0 0.63672-0.085937 1.2188-0.25 1.75-0.16797 0.53125-0.40625 0.99219-0.71875 1.375-0.30469 0.375-0.6875 0.67188-1.1562 0.89062-0.46094 0.20703-0.98047 0.3125-1.5625 0.3125-0.38672 0-0.74609-0.046875-1.0781-0.14062-0.33594-0.09375-0.60547-0.19531-0.8125-0.3125v3.2344h-1.9219v-11.016c0.38281-0.10156 0.86328-0.20312 1.4375-0.29688 0.57031-0.10156 1.1797-0.15625 1.8281-0.15625 0.65625 0 1.2422 0.10547 1.7656 0.3125 0.51953 0.19922 0.96094 0.48438 1.3281 0.85938 0.36328 0.375 0.64453 0.83594 0.84375 1.375 0.19531 0.54297 0.29688 1.1484 0.29688 1.8125z"/>
</symbol>
<symbol id="w" overflow="visible">
<path d="m4.5781-5.7188c0.30078 0 0.59766-0.023438 0.89062-0.078125 0.30078-0.0625 0.5625-0.15625 0.78125-0.28125 0.007812-0.11328 0.015625-0.21094 0.015625-0.29688v-0.21875c0-0.42578-0.03125-0.82812-0.09375-1.2031-0.054687-0.38281-0.15234-0.71875-0.29688-1-0.14844-0.28125-0.34375-0.5-0.59375-0.65625-0.25-0.16406-0.5625-0.25-0.9375-0.25-0.30469 0-0.5625 0.0625-0.78125 0.1875s-0.39844 0.29297-0.53125 0.5c-0.13672 0.19922-0.24219 0.41797-0.3125 0.65625-0.0625 0.23047-0.09375 0.45312-0.09375 0.67188 0 0.65625 0.15625 1.1523 0.46875 1.4844 0.3125 0.32422 0.80469 0.48438 1.4844 0.48438zm1.5156 1.1562c-0.26172 0.11719-0.54688 0.21094-0.85938 0.28125-0.30469 0.0625-0.60156 0.09375-0.89062 0.09375-0.65625 0-1.2188-0.085938-1.6875-0.26562-0.46094-0.17578-0.83594-0.42188-1.125-0.73438-0.29297-0.3125-0.50781-0.67578-0.64062-1.0938-0.13672-0.41406-0.20312-0.86328-0.20312-1.3438 0-0.40625 0.066406-0.82031 0.20312-1.25 0.13281-0.4375 0.35156-0.83203 0.65625-1.1875 0.30078-0.36328 0.67578-0.66016 1.125-0.89062 0.45703-0.22656 1-0.34375 1.625-0.34375 1.3008 0 2.2812 0.41797 2.9375 1.25 0.66406 0.83594 1 2.0117 1 3.5312 0 2.1484-0.55469 3.7734-1.6562 4.875-1.1055 1.1055-2.7969 1.6602-5.0781 1.6719l-0.078125-1.6094c0.63281 0 1.207-0.050781 1.7188-0.15625 0.51953-0.10156 0.97266-0.26953 1.3594-0.5 0.38281-0.23828 0.70703-0.54688 0.96875-0.92188 0.26953-0.38281 0.47656-0.85156 0.625-1.4062z"/>
</symbol>
<symbol id="v" overflow="visible">
<path d="m8.375-5.5312c0 1.8672-0.34375 3.293-1.0312 4.2812-0.67969 0.99219-1.6172 1.4844-2.8125 1.4844-1.2109 0-2.1523-0.49219-2.8281-1.4844-0.67969-0.98828-1.0156-2.4141-1.0156-4.2812 0-0.92578 0.085938-1.7422 0.26562-2.4531 0.17578-0.71875 0.42969-1.3203 0.76562-1.8125 0.33203-0.48828 0.73438-0.85938 1.2031-1.1094 0.47656-0.25781 1.0156-0.39062 1.6094-0.39062 1.1953 0 2.1328 0.5 2.8125 1.5 0.6875 0.99219 1.0312 2.4141 1.0312 4.2656zm-2 0c0-0.57031-0.03125-1.1094-0.09375-1.6094s-0.16797-0.92969-0.3125-1.2969c-0.14844-0.36328-0.33984-0.64844-0.57812-0.85938-0.23047-0.21875-0.51562-0.32812-0.85938-0.32812-0.35547 0-0.65234 0.10938-0.89062 0.32812-0.24219 0.21094-0.43359 0.49609-0.57812 0.85938-0.13672 0.36719-0.23438 0.79688-0.29688 1.2969s-0.09375 1.0391-0.09375 1.6094c0 0.57422 0.03125 1.1094 0.09375 1.6094s0.16016 0.93359 0.29688 1.2969c0.14453 0.36719 0.33594 0.65625 0.57812 0.875 0.23828 0.21094 0.53516 0.3125 0.89062 0.3125 0.34375 0 0.62891-0.10156 0.85938-0.3125 0.23828-0.21875 0.42969-0.50781 0.57812-0.875 0.14453-0.36328 0.25-0.79688 0.3125-1.2969s0.09375-1.0352 0.09375-1.6094z"/>
</symbol>
<clipPath id="as">
<path d="m99 20h37v54.707h-37z"/>
</clipPath>
</defs>
<g clip-path="url(#as)">
<path d="m128.55 21.348c-0.74609 0.61719-1.9336 1.9805-2.5508 3.0781-1.3164 2.1992-1.8008 2.375-2.3711 0.83594-0.57031-1.5391-2.0664-2.9023-2.8594-2.5938-1.2734 0.48438-1.625 1.8008-0.92188 3.3828 1.8906 4.1328 2.1523 10.156 0.61719 13.582-0.52734 1.1445-1.1445 2.1094-1.4062 2.1094-0.26563 0-1.0547-0.92188-1.8047-2.1094-2.8125-4.4375-12.527-15.031-13.801-15.031-0.61328 0-0.61328 2.1094-0.042969 4.5273 1.1875 5.0977 1.2305 17.715 0 18.945-0.21875 0.21875-0.44141 0.87891-0.44141 1.3594 0 0.52734-0.57031 1.4961-1.3164 2.1992-1.3633 1.3203-1.8008 3.5156-0.83594 4.4844 0.79297 0.78906 0.52734 5.3164-0.4375 7.25-0.87891 1.8477-0.83594 2.7695 0.21875 3.1641 0.4375 0.17578 0.61328 1.0117 0.61328 2.9023 0 2.7266 0.57422 3.957 1.8477 3.957 0.30859 0 1.668-1.0117 2.9883-2.2422 3.2539-2.9883 6.0664-4.793 7.5586-4.793 0.96875 0 1.5391 0.44141 2.7266 2.1094 0.83594 1.1445 1.8008 2.5508 2.1094 3.168 1.7578 3.5156 3.6055 3.5586 5.5391 0.12891 0.66016-1.2305 0.74609-12.262 0.085938-12.656-0.21875-0.13281-0.4375-0.92188-0.4375-1.6719 0-1.4492-0.61719-4.2188-1.2773-5.8008-1.3164-3.0781-1.8867-9.9336-0.92188-10.547 0.26562-0.13281 0.44141-0.61719 0.44141-1.0586 0-0.83203 2.3281-2.2383 3.7344-2.2383 0.39453 0 1.3203-0.35156 1.9766-0.75 1.1875-0.70312 1.3633-0.70312 2.9922 0.046876 2.0625 0.92187 3.6016 0.4375 3.6016-1.2305 0-1.1875-1.0117-2.1992-3.0312-3.0352-1.4492-0.61328-1.4492-0.66016-0.57031-1.1406 0.48047-0.26563 1.2734-0.48438 1.7578-0.48438 0.83203 0 2.7227-1.7148 2.7227-2.4609 0-0.26562-0.48047-0.92578-1.0977-1.4961-1.0547-1.0117-1.3203-1.0117-4.6133-0.17578-0.87891 0.21875-0.70312-0.085938 1.0078-1.582 1.4961-1.3164 2.0664-2.1523 2.0664-3.0312 0-2.418-1.625-2.8594-3.8672-1.1016zm-20.305 18.109c0 0.44141-0.26563 1.1875-0.61719 1.6719-0.57031 0.74609-0.66016 0.74609-0.92188 0.085938-0.30859-0.78906 0.4375-2.5469 1.0977-2.5469 0.26562 0 0.44141 0.35156 0.44141 0.78906zm9.582 4.3945c1.0078 2.1562 1.8438 4.3086 1.8438 4.8359 0 0.48438 0.21875 1.0547 0.44141 1.1875 0.26172 0.13281 0.4375 0.83594 0.4375 1.5391 0 0.70313 0.17578 1.3633 0.39453 1.4922 0.79297 0.52734 1.9375 12.57 1.5859 16.395-0.44141 4.0898-1.3633 4.1758-3.3438 0.26562-1.4922-2.9023-3.9531-5.4062-5.3594-5.4062-1.7148 0-4.5742 1.7148-7.6484 4.5273-1.6289 1.5391-2.9453 2.4609-3.2539 2.2422-0.66016-0.39844-0.26172-4.3984 1.3633-13.363 0.26172-1.3203 0.61328-4.1758 0.87891-6.2852 0.48438-4.5273 0.61719-4.8789 1.7578-4.2617 0.44141 0.21875 1.7148 0.4375 2.7695 0.4375 1.625 0 2.1992-0.21875 3.3398-1.4062 1.2734-1.3203 2.2422-3.5586 2.2422-5.3164 0-1.5391 0.74609-0.66016 2.5508 3.1172zm-14.594 9.4062c-0.13281 0.57422-0.26562 1.4961-0.26562 2.1094v1.1016l-0.65625-1.2305c-0.48438-1.0117-0.52734-1.4062-0.089844-2.1094 0.70312-1.1445 1.3633-1.0547 1.0117 0.12891z" fill="#007395"/>
</g>
<g fill="#007295">
<use x="136.809" y="74.708" xlink:href="#ar"/>
<use x="174.587329" y="74.708" xlink:href="#aq"/>
<use x="203.471014" y="74.708" xlink:href="#ap"/>
<use x="231.398285" y="74.708" xlink:href="#ao"/>
<use x="259.56466" y="74.708" xlink:href="#an"/>
<use x="284.861794" y="74.708" xlink:href="#am"/>
</g>
<g fill="#007295">
<use x="312.884707" y="74.708" xlink:href="#al"/>
</g>
<g fill="#007295">
<use x="14.101" y="108.876" xlink:href="#ak"/>
</g>
<g fill="#007295">
<use x="23.983936" y="108.876" xlink:href="#l"/>
<use x="33.277085" y="108.876" xlink:href="#c"/>
<use x="39.700993" y="108.876" xlink:href="#c"/>
<use x="46.124902" y="108.876" xlink:href="#b"/>
<use x="55.226768" y="108.876" xlink:href="#m"/>
<use x="64.551796" y="108.876" xlink:href="#u"/>
</g>
<g fill="#007295">
<use x="74.92888" y="108.876" xlink:href="#t"/>
<use x="83.106212" y="108.876" xlink:href="#a"/>
</g>
<g fill="#007295">
<use x="91.411067" y="108.876" xlink:href="#s"/>
<use x="99.795623" y="108.876" xlink:href="#a"/>
<use x="108.3077" y="108.876" xlink:href="#aj"/>
<use x="117.090761" y="108.876" xlink:href="#ai"/>
</g>
<g fill="#007295">
<use x="131.277557" y="108.876" xlink:href="#ah"/>
<use x="141.479298" y="108.876" xlink:href="#b"/>
<use x="150.581164" y="108.876" xlink:href="#g"/>
<use x="155.315409" y="108.876" xlink:href="#b"/>
<use x="164.417275" y="108.876" xlink:href="#a"/>
<use x="172.929352" y="108.876" xlink:href="#e"/>
<use x="180.214033" y="108.876" xlink:href="#b"/>
</g>
<g fill="#007295">
<use x="193.02997" y="108.876" xlink:href="#ag"/>
</g>
<g fill="#007295">
<use x="207.647151" y="108.876" xlink:href="#af"/>
<use x="216.98812" y="108.876" xlink:href="#a"/>
<use x="225.500198" y="108.876" xlink:href="#c"/>
<use x="231.924106" y="108.876" xlink:href="#g"/>
<use x="236.658352" y="108.876" xlink:href="#ae"/>
<use x="244.931326" y="108.876" xlink:href="#ad"/>
<use x="249.952495" y="108.876" xlink:href="#ac"/>
</g>
<g fill="#007295">
<use x="260.632443" y="108.876" xlink:href="#k"/>
<use x="268.156226" y="108.876" xlink:href="#k"/>
<use x="275.68001" y="108.876" xlink:href="#b"/>
<use x="284.781876" y="108.876" xlink:href="#e"/>
<use x="292.066556" y="108.876" xlink:href="#e"/>
</g>
<g fill="#007295">
<use x="303.065308" y="108.876" xlink:href="#ab"/>
<use x="313.538033" y="108.876" xlink:href="#l"/>
<use x="322.831181" y="108.876" xlink:href="#j"/>
<use x="327.230682" y="108.876" xlink:href="#g"/>
<use x="331.964927" y="108.876" xlink:href="#r"/>
<use x="341.465298" y="108.876" xlink:href="#e"/>
</g>
<g fill="#007295">
<use x="352.46405" y="108.876" xlink:href="#q"/>
</g>
<g fill="#007295">
<use x="358.680736" y="108.876" xlink:href="#aa"/>
<use x="368.212987" y="108.876" xlink:href="#c"/>
</g>
<g fill="#007295">
<use x="378.350967" y="108.876" xlink:href="#z"/>
<use x="386.863045" y="108.876" xlink:href="#j"/>
<use x="391.262545" y="108.876" xlink:href="#m"/>
<use x="400.587574" y="108.876" xlink:href="#l"/>
<use x="409.880722" y="108.876" xlink:href="#p"/>
</g>
<g fill="#007295">
<use x="52.254" y="128.801" xlink:href="#a"/>
<use x="60.766077" y="128.801" xlink:href="#i"/>
<use x="74.554368" y="128.801" xlink:href="#r"/>
<use x="84.054739" y="128.801" xlink:href="#f"/>
<use x="93.108784" y="128.801" xlink:href="#h"/>
</g>
<g fill="#007295">
<use x="105.8769" y="128.801" xlink:href="#d"/>
</g>
<g fill="#007295">
<use x="112.938418" y="128.801" xlink:href="#a"/>
<use x="121.450495" y="128.801" xlink:href="#c"/>
<use x="127.874404" y="128.801" xlink:href="#i"/>
<use x="141.662694" y="128.801" xlink:href="#f"/>
<use x="150.716739" y="128.801" xlink:href="#h"/>
</g>
<g fill="#007295">
<use x="163.484855" y="128.801" xlink:href="#d"/>
</g>
<g fill="#007295">
<use x="170.546373" y="128.801" xlink:href="#a"/>
<use x="179.05845" y="128.801" xlink:href="#c"/>
<use x="185.482359" y="128.801" xlink:href="#i"/>
<use x="199.270649" y="128.801" xlink:href="#y"/>
<use x="208.547857" y="128.801" xlink:href="#q"/>
</g>
<g fill="#007295">
<use x="218.638016" y="128.801" xlink:href="#d"/>
</g>
<g fill="#007295">
<use x="225.699534" y="128.801" xlink:href="#j"/>
<use x="230.099035" y="128.801" xlink:href="#o"/>
<use x="239.153079" y="128.801" xlink:href="#x"/>
<use x="248.207124" y="128.801" xlink:href="#f"/>
</g>
<g fill="#007295">
<use x="260.975241" y="128.801" xlink:href="#d"/>
</g>
<g fill="#007295">
<use x="268.036758" y="128.801" xlink:href="#n"/>
<use x="277.537129" y="128.801" xlink:href="#n"/>
<use x="287.0375" y="128.801" xlink:href="#k"/>
<use x="294.561284" y="128.801" xlink:href="#f"/>
<use x="303.615329" y="128.801" xlink:href="#h"/>
<use x="312.669374" y="128.801" xlink:href="#b"/>
<use x="321.77124" y="128.801" xlink:href="#g"/>
</g>
<g fill="#007295">
<use x="330.219556" y="128.801" xlink:href="#d"/>
</g>
<g fill="#007295">
<use x="337.281074" y="128.801" xlink:href="#e"/>
<use x="344.565754" y="128.801" xlink:href="#o"/>
<use x="353.619799" y="128.801" xlink:href="#w"/>
<use x="362.673844" y="128.801" xlink:href="#v"/>
<use x="371.727889" y="128.801" xlink:href="#p"/>
</g>
</svg>
